<?xml version="1.0" encoding="UTF-8" standalone="no"?>
<svg
   xmlns:dc="http://purl.org/dc/elements/1.1/"
   xmlns:cc="http://creativecommons.org/ns#"
   xmlns:rdf="http://www.w3.org/1999/02/22-rdf-syntax-ns#"
   xmlns:svg="http://www.w3.org/2000/svg"
   xmlns="http://www.w3.org/2000/svg"
   height="76.529999"
   width="73.213997"
   id="svg66"
   xml:space="preserve"
   enable-background="new 0 0 100 100"
   viewBox="0 0 73.213997 76.529999"
   y="0px"
   x="0px"
   version="1.1"><metadata
     id="metadata72"><rdf:RDF><cc:Work
         rdf:about=""><dc:format>image/svg+xml</dc:format><dc:type
           rdf:resource="http://purl.org/dc/dcmitype/StillImage" /><dc:title></dc:title></cc:Work></rdf:RDF></metadata><defs
     id="defs70" /><polygon
     transform="translate(-14.068,-11.868)"
     style="fill:#000000"
     id="polygon2"
     points="28.806,57.796 50.176,73.321 50.176,50.83 " /><polygon
     transform="translate(-14.068,-11.868)"
     style="fill:#000000"
     id="polygon4"
     points="51.137,50.83 51.137,73.322 72.543,57.796 " /><polygon
     transform="translate(-14.068,-11.868)"
     style="fill:#000000"
     id="polygon6"
     points="16.374,39.533 14.068,38.792 14.068,55.532 " /><polygon
     transform="translate(-14.068,-11.868)"
     style="fill:#000000"
     id="polygon8"
     points="65.572,30.468 83.363,38.214 73.521,19.536 " /><polygon
     transform="translate(-14.068,-11.868)"
     style="fill:#000000"
     id="polygon10"
     points="51.923,15.364 64.795,29.904 72.746,18.974 " /><polygon
     transform="translate(-14.068,-11.868)"
     style="fill:#000000"
     id="polygon12"
     points="72.84,56.884 64.665,31.714 51.432,49.917 " /><polygon
     transform="translate(-14.068,-11.868)"
     style="fill:#000000"
     id="polygon14"
     points="73.715,56.468 83.736,39.425 65.619,31.536 " /><polygon
     transform="translate(-14.068,-11.868)"
     style="fill:#000000"
     id="polygon16"
     points="71.117,78.326 73.008,58.646 51.801,74.026 " /><polygon
     transform="translate(-14.068,-11.868)"
     style="fill:#000000"
     id="polygon18"
     points="37.565,30.188 63.765,30.188 50.656,15.381 " /><polygon
     transform="translate(-14.068,-11.868)"
     style="fill:#000000"
     id="polygon20"
     points="50.176,14.253 50.176,11.868 34.35,17.001 " /><polygon
     transform="translate(-14.068,-11.868)"
     style="fill:#000000"
     id="polygon22"
     points="49.881,49.917 36.666,31.715 28.51,56.884 " /><polygon
     transform="translate(-14.068,-11.868)"
     style="fill:#000000"
     id="polygon24"
     points="16.671,38.62 24.211,24.334 14.365,37.878 " /><polygon
     transform="translate(-14.068,-11.868)"
     style="fill:#000000"
     id="polygon26"
     points="17.971,38.213 35.761,30.467 27.827,19.538 " /><polygon
     transform="translate(-14.068,-11.868)"
     style="fill:#000000"
     id="polygon28"
     points="36.536,29.903 49.391,15.364 28.604,18.974 " /><polygon
     transform="translate(-14.068,-11.868)"
     style="fill:#000000"
     id="polygon30"
     points="30.214,78.326 49.514,74.026 28.342,58.646 " /><polygon
     transform="translate(-14.068,-11.868)"
     style="fill:#000000"
     id="polygon32"
     points="35.715,31.535 17.596,39.425 27.635,56.468 " /><polygon
     transform="translate(-14.068,-11.868)"
     style="fill:#000000"
     id="polygon34"
     points="66.991,17.001 51.137,11.868 51.137,14.253 " /><polygon
     transform="translate(-14.068,-11.868)"
     style="fill:#000000"
     id="polygon36"
     points="84.662,38.62 86.984,37.878 77.121,24.308 " /><polygon
     transform="translate(-14.068,-11.868)"
     style="fill:#000000"
     id="polygon38"
     points="29.181,77.599 27.341,58.272 14.469,62.444 " /><polygon
     transform="translate(-14.068,-11.868)"
     style="fill:#000000"
     id="polygon40"
     points="27.045,57.36 17.187,40.621 14.172,61.532 " /><polygon
     transform="translate(-14.068,-11.868)"
     style="fill:#000000"
     id="polygon42"
     points="70.104,79.084 51.137,74.862 51.137,88.398 " /><polygon
     transform="translate(-14.068,-11.868)"
     style="fill:#000000"
     id="polygon44"
     points="63.889,31.149 37.442,31.149 50.656,49.353 " /><polygon
     transform="translate(-14.068,-11.868)"
     style="fill:#000000"
     id="polygon46"
     points="31.227,79.084 50.176,88.398 50.176,74.862 " /><polygon
     transform="translate(-14.068,-11.868)"
     style="fill:#000000"
     id="polygon48"
     points="29.164,78.959 17.942,67.4 27.762,80.907 " /><polygon
     transform="translate(-14.068,-11.868)"
     style="fill:#000000"
     id="polygon50"
     points="29.938,79.522 28.536,81.472 44.397,86.629 " /><polygon
     transform="translate(-14.068,-11.868)"
     style="fill:#000000"
     id="polygon52"
     points="71.394,79.522 56.908,86.635 72.811,81.473 " /><polygon
     transform="translate(-14.068,-11.868)"
     style="fill:#000000"
     id="polygon54"
     points="84.146,40.622 74.305,57.36 87.178,61.53 " /><polygon
     transform="translate(-14.068,-11.868)"
     style="fill:#000000"
     id="polygon56"
     points="84.958,39.533 87.282,55.567 87.282,38.789 " /><polygon
     transform="translate(-14.068,-11.868)"
     style="fill:#000000"
     id="polygon58"
     points="74.008,58.272 72.153,77.599 86.88,62.444 " /><polygon
     transform="translate(-14.068,-11.868)"
     style="fill:#000000"
     id="polygon60"
     points="72.17,78.958 73.588,80.91 83.424,67.378 " /></svg>